<svg xmlns="http://www.w3.org/2000/svg" width="256" height="256"><path d="m52.66 114.599 2.025-.02a700 700 0 0 1 6.713-.015l4.815-.03c4.36-.027 8.719-.034 13.078-.036q4.088-.003 8.174-.016 14.26-.042 28.52-.038c8.859.002 17.716-.03 26.574-.077 7.608-.04 15.216-.055 22.824-.054 4.542.001 9.084-.007 13.627-.04q6.41-.04 12.822-.007 2.349.006 4.698-.022c13.294-.144 13.294-.144 17.894 3.614 3.425 3.562 3.93 7.187 3.857 12.08-.47 3.443-2.052 5.472-4.281 8.062-3.972 2.935-6.822 3.376-11.718 3.381l-2.007.014c-2.211.012-4.423.003-6.634-.007q-2.384.006-4.766.016c-4.31.014-8.62.008-12.93-.001-4.511-.008-9.023 0-13.534.004q-11.364.007-22.727-.016c-8.758-.016-17.515-.01-26.273.006q-11.28.02-22.56.007c-4.492-.004-8.982-.005-13.473.005q-6.334.013-12.667-.015-2.324-.006-4.647.004c-2.116.008-4.23-.002-6.346-.017l-3.587-.003c-4.836-.584-7.311-2.425-10.443-6.065-2.045-4.014-2.569-6.9-1.688-11.313 3.642-6.894 6.895-9.369 14.66-9.401m0-64 2.025-.02a700 700 0 0 1 6.713-.015l4.815-.03c4.36-.027 8.719-.034 13.078-.036q4.088-.004 8.174-.016 14.26-.041 28.52-.038c8.859.002 17.716-.03 26.574-.077 7.608-.04 15.216-.055 22.824-.054 4.542.001 9.084-.007 13.627-.04q6.41-.04 12.822-.007 2.349.006 4.698-.022c13.294-.144 13.294-.144 17.894 3.614 3.425 3.562 3.93 7.187 3.857 12.08-.47 3.443-2.052 5.472-4.281 8.062-3.972 2.935-6.822 3.376-11.718 3.381l-2.007.014c-2.211.012-4.423.003-6.634-.007q-2.384.007-4.766.016c-4.31.014-8.62.008-12.93-.001-4.511-.008-9.023 0-13.534.004q-11.364.007-22.727-.016c-8.758-.016-17.515-.01-26.273.006q-11.28.02-22.56.007-6.737-.008-13.473.005-6.334.013-12.667-.015-2.324-.006-4.647.004c-2.116.008-4.23-.002-6.346-.017l-3.587-.003c-4.836-.584-7.311-2.425-10.443-6.065C37.643 67.299 37.119 64.413 38 60c3.642-6.894 6.895-9.369 14.66-9.401m1.701 128.013 2.549-.016c2.779-.013 5.557-.005 8.336.006q2.9-.003 5.799-.01 6.076-.005 12.153.017c5.19.017 10.379.007 15.568-.01 3.992-.012 7.984-.008 11.976 0q2.87.004 5.74-.008c2.676-.008 5.351.004 8.028.02l2.391-.018c4.552.053 7.469.61 11.099 3.407 3.41 3.88 3.455 7.673 3.285 12.629-.38 3.162-1.181 4.977-3.285 7.371-4.282 3.289-8.174 3.429-13.383 3.388l-2.52.016a966 966 0 0 1-8.222-.006q-2.864.003-5.727.01-5.997.005-11.994-.017c-5.121-.017-10.242-.007-15.363.01-3.942.012-7.883.008-11.824 0q-2.832-.004-5.664.008c-2.64.008-5.28-.004-7.92-.02l-2.359.018c-4.529-.053-7.422-.615-11.024-3.407-3.38-3.928-4.663-6.956-4.39-12.043.805-4.038 3.193-6.741 6.008-9.6 3.476-1.98 6.85-1.775 10.743-1.745" fill="#F7941C"/></svg>